<svg width="1728" height="294" viewBox="0 0 1728 294" fill="none" xmlns="http://www.w3.org/2000/svg">
<path d="M32 67.5L-2 162H779V128.5V22.5L738.5 136L727 67.5L715.5 128.5L698 22.5L657.5 136V67.5L614 128.5H570.5V57.5L552.5 136L525.5 39L487 128.5V91.5L470 136V77.5L451.5 136V77.5L436 136L397.5 39L370.5 113L342 77.5L328 128.5L295 57.5L254 128.5V77.5L242.5 136L221 57.5L194 136L168.5 91.5L157 136L134.5 67.5L113 136L103 67.5L83.5 145.5L63.5 91.5V145.5L32 67.5Z" fill="#8AC926"/>
<path d="M1735 338V162H1260.5H1061H942.5H779H-2V338H1735Z" fill="#8AC926"/>
<path d="M915.5 33L942.5 162H1061L1109 33L1029.5 136L1016 53L996 147.5L983 67.5L964.5 143.5L955 79.5V147.5L915.5 33Z" fill="#8AC926"/>
<path d="M1260.5 162H1735L1742.5 22.5L1709.5 147.5L1693.5 33L1678.5 147.5L1649 53L1624 136L1600 53L1590.5 136L1558.5 0L1553 113L1538 53L1518.5 128.5V2L1492.5 136L1476.5 22.5L1444.5 136L1412.5 33L1398.5 136L1376 67.5L1357.5 128.5L1339.5 33L1331.5 128.5L1313 53L1296 147.5L1233 13.5L1273 143.5L1198.5 79.5L1260.5 162Z" fill="#8AC926"/>
</svg>
