<svg width="303" height="215" viewBox="0 0 303 215" fill="none" xmlns="http://www.w3.org/2000/svg">
<path d="M72.5238 63.0565C52.7132 41.6323 10.7235 7.71931 1.24958 43.4612C-8.22433 79.2031 38.4954 90.5771 63.0394 91.7963C63.5854 89.8822 64.1869 87.7994 64.8525 85.5258C49.7522 86.0484 20.5204 81.0842 24.3961 57.0473C28.2718 33.0103 56.3184 55.0442 69.8573 69.0658C70.621 66.9564 71.5146 64.955 72.5238 63.0565Z" fill="#894C14"/>
<path d="M298.117 35.3618C280.03 14.0913 246.082 44.2245 231.369 61.9499C232.726 64.1365 233.724 66.269 234.378 68.2819C245.666 54.87 270.126 32.8536 277.662 52.0831C285.198 71.3127 254.536 82.5648 238.264 85.7871C238.644 87.5312 239.078 89.4435 239.58 91.5351C258.558 92.5802 320.725 61.9499 298.117 35.3618Z" fill="#894C14"/>
<path d="M238.905 185.854C246.11 177.194 260.06 156.853 248.863 123.41C243.48 124.02 233.091 128.688 234.598 142.483C236.106 156.278 233.831 160.424 232.505 160.772C237.151 168.05 239.689 179.934 225.855 196.566C232.979 192.326 236.828 188.35 238.905 185.854Z" fill="#E9C8AA"/>
<path d="M69.0742 71.4172C69.3175 70.6189 69.5788 69.8351 69.8573 69.0658C56.3184 55.0442 28.2718 33.0103 24.3961 57.0473C20.5204 81.0842 49.7522 86.0484 64.8525 85.5258C66.0394 81.4718 67.4303 76.811 69.0742 71.4172Z" fill="#AC6625"/>
<path d="M234.378 68.2819C234.729 69.365 234.982 70.4135 235.137 71.4172C235.61 72.6418 236.023 74.7407 236.652 77.9372L236.652 77.9383L236.653 77.9413L236.653 77.943C237.069 80.0566 237.579 82.6499 238.264 85.7871C254.536 82.5648 285.198 71.3127 277.662 52.0831C270.126 32.8536 245.666 54.87 234.378 68.2819Z" fill="#AC6625"/>
<path d="M109.641 35.3618C101.502 25.0851 85.4382 3.80024 86.2995 0.874008C87.3761 -2.78379 70.9473 14.7214 85.2174 47.9028C92.3699 42.1309 100.931 38.0972 109.641 35.3618Z" fill="#522700"/>
<path d="M217.104 0.873997C217.75 6.30844 200.955 26.4786 192.476 35.8843C202.562 38.9369 210.72 43.0131 217.104 47.4893C231.369 28.5255 216.297 -5.91905 217.104 0.873997Z" fill="#522700"/>
<path fill-rule="evenodd" clip-rule="evenodd" d="M52.6563 125.762C58.2155 116.443 72.0263 107.682 82.7959 147.186C88.8549 143.227 96.8026 139.439 107.024 135.951C124.583 129.959 140.729 127.687 155.201 127.872C159.938 119.528 141.026 106.441 130.978 100.941C130.978 108.03 128.819 112.858 125.912 116.071C121.858 120.553 116.349 121.893 113.214 121.843C110.466 122.102 106.569 121.649 103.031 119.643C102.072 119.099 101.139 118.441 100.263 117.653C96.7719 114.511 94.176 109.293 94.3738 100.941C94.8045 82.7564 107.831 80.1262 114.291 81.0842C105.247 61.2276 80.3783 66.366 69.0742 71.4172C67.4303 76.811 66.0394 81.4718 64.8525 85.5258C64.1869 87.7994 63.5854 89.8822 63.0394 91.7963C60.8298 99.543 59.5291 104.529 58.5637 108.229C56.711 115.331 56.0934 117.698 52.6563 125.762Z" fill="#E9C8AA"/>
<path d="M52.6563 125.762C47.3759 138.149 49.6957 159.988 52.6563 169.916C55.9488 180.957 67.13 194.826 87.1069 204.245C70.6425 192.686 51.4565 167.66 82.7959 147.186C72.0263 107.682 58.2155 116.443 52.6563 125.762Z" fill="#894C14"/>
<path d="M181.039 176.187C181.95 175.116 182.75 173.996 183.494 172.954C186.924 168.15 189.158 165.021 195.572 176.187C197.995 166.781 181.846 158.42 181.039 176.187Z" fill="#C86394"/>
<path fill-rule="evenodd" clip-rule="evenodd" d="M87.1069 204.245C103.057 211.766 124.614 216.45 152.24 214.594C191.606 211.949 213.587 203.867 225.855 196.566C239.689 179.934 237.151 168.05 232.505 160.772C231.547 159.27 230.498 157.964 229.485 156.853C218.996 145.351 192.724 128.352 155.201 127.872C140.729 127.687 124.583 129.959 107.024 135.951C96.8026 139.439 88.8549 143.227 82.7959 147.186C51.4565 167.66 70.6425 192.686 87.1069 204.245ZM183.494 172.954C182.75 173.996 181.95 175.116 181.039 176.187C181.846 158.42 197.995 166.781 195.572 176.187C189.158 165.021 186.924 168.15 183.494 172.954ZM97.0653 176.187C99.1287 170.7 104.601 162.705 109.984 174.619C108.1 157.114 94.643 168.349 97.0653 176.187Z" fill="#FF9CCC"/>
<path d="M97.0653 176.187C99.1287 170.7 104.601 162.705 109.984 174.619C108.1 157.114 94.643 168.349 97.0653 176.187Z" fill="#C86394"/>
<path fill-rule="evenodd" clip-rule="evenodd" d="M72.5238 63.0565C71.5146 64.955 70.621 66.9564 69.8573 69.0658C69.5788 69.8351 69.3175 70.6189 69.0742 71.4172C80.3783 66.366 105.247 61.2276 114.291 81.0842C115.905 81.0842 130.978 82.6519 130.978 100.941C141.026 106.441 159.938 119.528 155.201 127.872C192.724 128.352 218.996 145.351 229.485 156.853C230.498 157.964 231.547 159.27 232.505 160.772C233.831 160.424 236.106 156.278 234.598 142.483C233.091 128.688 243.48 124.02 248.863 123.41C244.321 109.844 241.471 99.4171 239.58 91.5351C239.078 89.4435 238.644 87.5312 238.264 85.7871C237.579 82.6499 237.069 80.0566 236.653 77.943L236.653 77.9413L236.652 77.9383L236.652 77.9372C236.023 74.7407 235.61 72.6418 235.137 71.4172C234.982 70.4135 234.729 69.365 234.378 68.2819C233.724 66.269 232.726 64.1365 231.369 61.9499C228.395 57.1607 223.696 52.1117 217.104 47.4893C210.72 43.0131 202.562 38.9369 192.476 35.8843C180.331 32.2083 165.392 30.0165 147.395 30.3976C137.845 29.936 123.552 30.9934 109.641 35.3618C100.931 38.0972 92.3699 42.1309 85.2174 47.9028C80.1185 52.0175 75.7354 57.0156 72.5238 63.0565ZM187.725 117.653C192.207 121.93 197.256 122.323 200.148 121.581C202.635 121.304 206.23 119.951 209.372 116.831C209.93 116.278 210.473 115.669 210.993 115C211.657 114.147 212.283 113.197 212.853 112.143C214.862 108.431 216.146 102.904 214.533 96.4286C210.089 78.5967 199.699 79.1175 191.804 81.7919C187.725 83.3073 182.095 87.8571 182.095 103.929C182.095 110.84 184.839 114.897 187.725 117.653Z" fill="#894C14"/>
<ellipse cx="112.058" cy="110" rx="8.10949" ry="10.7143" fill="black"/>
<ellipse cx="196.839" cy="110" rx="8.10949" ry="10.7143" fill="black"/>
</svg>
